<svg xmlns="http://www.w3.org/2000/svg" xmlns:xlink="http://www.w3.org/1999/xlink" width="500" zoomAndPan="magnify" viewBox="0 0 375 374.999991" height="500" preserveAspectRatio="xMidYMid meet" version="1.0"><defs><g/><clipPath id="9cc1a1aef2"><path d="M 21 138 L 119 138 L 119 237 L 21 237 Z M 21 138 " clip-rule="nonzero"/></clipPath><clipPath id="3f7deb80f4"><path d="M 70.316406 138.257812 L 119.636719 187.578125 L 70.316406 236.898438 L 20.996094 187.578125 Z M 70.316406 138.257812 " clip-rule="nonzero"/></clipPath><clipPath id="80c428a4ac"><path d="M 70.316406 138.257812 L 119.636719 187.578125 L 70.316406 236.898438 L 20.996094 187.578125 Z M 70.316406 138.257812 " clip-rule="nonzero"/></clipPath></defs><g fill="#edeced" fill-opacity="1"><g transform="translate(128.972209, 187.88388)"><g><path d="M 2.875 0 L 2.875 -21.1875 L 6.015625 -21.1875 L 6.015625 -1.734375 C 7.316406 -1.347656 8.363281 -1.15625 9.15625 -1.15625 L 14.9375 -2.140625 L 14.5625 0 Z M 2.875 0 "/></g></g></g><g fill="#edeced" fill-opacity="1"><g transform="translate(146.760378, 187.88388)"><g><path d="M 2.875 0 L 2.875 -21.1875 L 15.71875 -21.1875 L 15.390625 -19.046875 L 9.4375 -20.03125 C 8.394531 -20.03125 7.242188 -19.847656 5.984375 -19.484375 L 5.984375 -11.71875 L 13.09375 -11.71875 L 13.09375 -10.5 L 5.984375 -10.5 L 5.984375 -1.15625 L 15.90625 -2.140625 L 15.578125 0 Z M 2.875 0 "/></g></g></g><g fill="#edeced" fill-opacity="1"><g transform="translate(166.947961, 187.88388)"><g><path d="M 5.1875 -17.5 C 5.1875 -16.5625 5.550781 -15.691406 6.28125 -14.890625 C 7.019531 -14.097656 7.914062 -13.394531 8.96875 -12.78125 C 10.03125 -12.175781 11.082031 -11.554688 12.125 -10.921875 C 13.175781 -10.296875 14.066406 -9.523438 14.796875 -8.609375 C 15.535156 -7.691406 15.90625 -6.675781 15.90625 -5.5625 C 15.90625 -3.8125 15.257812 -2.378906 13.96875 -1.265625 C 12.675781 -0.160156 10.929688 0.390625 8.734375 0.390625 C 6.535156 0.390625 4.359375 -0.0234375 2.203125 -0.859375 L 2.203125 -2.375 C 4.378906 -1.28125 6.226562 -0.734375 7.75 -0.734375 C 9.28125 -0.734375 10.472656 -1.101562 11.328125 -1.84375 C 12.179688 -2.59375 12.609375 -3.628906 12.609375 -4.953125 C 12.609375 -5.847656 12.253906 -6.664062 11.546875 -7.40625 C 10.847656 -8.144531 9.992188 -8.785156 8.984375 -9.328125 C 7.984375 -9.867188 6.984375 -10.425781 5.984375 -11 C 4.984375 -11.582031 4.128906 -12.316406 3.421875 -13.203125 C 2.722656 -14.085938 2.375 -15.15625 2.375 -16.40625 C 2.375 -17.664062 2.929688 -18.835938 4.046875 -19.921875 C 5.171875 -21.015625 6.84375 -21.5625 9.0625 -21.5625 C 10.507812 -21.5625 12.34375 -21.234375 14.5625 -20.578125 L 14.234375 -18.40625 C 11.359375 -19.632812 8.894531 -20.25 6.84375 -20.25 C 5.738281 -19.71875 5.1875 -18.800781 5.1875 -17.5 Z M 5.1875 -17.5 "/></g></g></g><g fill="#edeced" fill-opacity="1"><g transform="translate(186.943592, 187.88388)"><g><path d="M 5.1875 -17.5 C 5.1875 -16.5625 5.550781 -15.691406 6.28125 -14.890625 C 7.019531 -14.097656 7.914062 -13.394531 8.96875 -12.78125 C 10.03125 -12.175781 11.082031 -11.554688 12.125 -10.921875 C 13.175781 -10.296875 14.066406 -9.523438 14.796875 -8.609375 C 15.535156 -7.691406 15.90625 -6.675781 15.90625 -5.5625 C 15.90625 -3.8125 15.257812 -2.378906 13.96875 -1.265625 C 12.675781 -0.160156 10.929688 0.390625 8.734375 0.390625 C 6.535156 0.390625 4.359375 -0.0234375 2.203125 -0.859375 L 2.203125 -2.375 C 4.378906 -1.28125 6.226562 -0.734375 7.75 -0.734375 C 9.28125 -0.734375 10.472656 -1.101562 11.328125 -1.84375 C 12.179688 -2.59375 12.609375 -3.628906 12.609375 -4.953125 C 12.609375 -5.847656 12.253906 -6.664062 11.546875 -7.40625 C 10.847656 -8.144531 9.992188 -8.785156 8.984375 -9.328125 C 7.984375 -9.867188 6.984375 -10.425781 5.984375 -11 C 4.984375 -11.582031 4.128906 -12.316406 3.421875 -13.203125 C 2.722656 -14.085938 2.375 -15.15625 2.375 -16.40625 C 2.375 -17.664062 2.929688 -18.835938 4.046875 -19.921875 C 5.171875 -21.015625 6.84375 -21.5625 9.0625 -21.5625 C 10.507812 -21.5625 12.34375 -21.234375 14.5625 -20.578125 L 14.234375 -18.40625 C 11.359375 -19.632812 8.894531 -20.25 6.84375 -20.25 C 5.738281 -19.71875 5.1875 -18.800781 5.1875 -17.5 Z M 5.1875 -17.5 "/></g></g></g><g fill="#edeced" fill-opacity="1"><g transform="translate(206.939222, 187.88388)"><g><path d="M 5.828125 -21.1875 L 5.828125 0 L 2.875 0 L 2.875 -21.1875 Z M 5.828125 -21.1875 "/></g></g></g><g fill="#edeced" fill-opacity="1"><g transform="translate(217.84908, 187.88388)"><g><path d="M 18.96875 0.359375 L 18.4375 0.359375 L 4.421875 -17.1875 L 4.28125 -17.1875 L 4.28125 0 L 2.875 0 L 2.875 -21.1875 L 5.25 -21.1875 L 17.4375 -5.796875 L 17.5625 -5.796875 L 17.5625 -21.1875 L 18.96875 -21.1875 Z M 18.96875 0.359375 "/></g></g></g><g fill="#edeced" fill-opacity="1"><g transform="translate(241.907707, 187.88388)"><g/></g></g><g fill="#edeced" fill-opacity="1"><g transform="translate(252.113742, 187.88388)"><g><path d="M 2.875 0 L 2.875 -21.1875 L 6.015625 -21.1875 L 6.015625 -1.734375 C 7.316406 -1.347656 8.363281 -1.15625 9.15625 -1.15625 L 14.9375 -2.140625 L 14.5625 0 Z M 2.875 0 "/></g></g></g><g fill="#edeced" fill-opacity="1"><g transform="translate(269.901911, 187.88388)"><g><path d="M 0.3125 0 L 9.828125 -21.703125 L 10.296875 -21.703125 L 19.8125 0 L 16.3125 0 L 13.921875 -5.765625 L 4.421875 -5.765625 L 2.046875 0 Z M 4.890625 -6.96875 L 13.40625 -6.96875 L 9.1875 -17.34375 Z M 4.890625 -6.96875 "/></g></g></g><g fill="#edeced" fill-opacity="1"><g transform="translate(292.23296, 187.88388)"><g><path d="M 25.46875 -21.1875 L 27.078125 -21.1875 L 19.140625 0.484375 L 18.625 0.484375 L 13.734375 -12.640625 L 8.921875 0.484375 L 8.421875 0.484375 L 0.3125 -21.1875 L 3.8125 -21.1875 L 9.4375 -3.84375 L 13.03125 -14.53125 L 10.53125 -21.1875 L 14.015625 -21.1875 L 19.640625 -3.84375 Z M 25.46875 -21.1875 "/></g></g></g><g fill="#ddc385" fill-opacity="1"><g transform="translate(128.972209, 214.216407)"><g><path d="M 1.0625 0 L 1.0625 -8.515625 L 4.59375 -8.515625 C 4.957031 -8.515625 5.296875 -8.4375 5.609375 -8.28125 C 5.921875 -8.125 6.1875 -7.921875 6.40625 -7.671875 C 6.632812 -7.421875 6.8125 -7.132812 6.9375 -6.8125 C 7.0625 -6.5 7.125 -6.175781 7.125 -5.84375 C 7.125 -5.488281 7.0625 -5.148438 6.9375 -4.828125 C 6.820312 -4.503906 6.65625 -4.21875 6.4375 -3.96875 C 6.226562 -3.71875 5.972656 -3.515625 5.671875 -3.359375 C 5.367188 -3.210938 5.035156 -3.140625 4.671875 -3.140625 L 1.90625 -3.140625 L 1.90625 0 Z M 1.90625 -3.890625 L 4.625 -3.890625 C 4.875 -3.890625 5.097656 -3.941406 5.296875 -4.046875 C 5.503906 -4.160156 5.679688 -4.304688 5.828125 -4.484375 C 5.972656 -4.660156 6.082031 -4.863281 6.15625 -5.09375 C 6.238281 -5.332031 6.28125 -5.582031 6.28125 -5.84375 C 6.28125 -6.101562 6.234375 -6.351562 6.140625 -6.59375 C 6.054688 -6.832031 5.9375 -7.035156 5.78125 -7.203125 C 5.625 -7.378906 5.4375 -7.519531 5.21875 -7.625 C 5.007812 -7.726562 4.789062 -7.78125 4.5625 -7.78125 L 1.90625 -7.78125 Z M 1.90625 -3.890625 "/></g></g></g><g fill="#ddc385" fill-opacity="1"><g transform="translate(137.636542, 214.216407)"><g><path d="M 6.796875 -0.75 L 6.796875 0 L 1.0625 0 L 1.0625 -8.515625 L 6.6875 -8.515625 L 6.6875 -7.78125 L 1.90625 -7.78125 L 1.90625 -4.703125 L 6.078125 -4.703125 L 6.078125 -4 L 1.90625 -4 L 1.90625 -0.75 Z M 6.796875 -0.75 "/></g></g></g><g fill="#ddc385" fill-opacity="1"><g transform="translate(146.144869, 214.216407)"><g><path d="M 1.0625 0 L 1.0625 -8.515625 L 4.671875 -8.515625 C 5.035156 -8.515625 5.367188 -8.4375 5.671875 -8.28125 C 5.984375 -8.125 6.25 -7.921875 6.46875 -7.671875 C 6.695312 -7.421875 6.875 -7.132812 7 -6.8125 C 7.125 -6.5 7.1875 -6.175781 7.1875 -5.84375 C 7.1875 -5.53125 7.140625 -5.234375 7.046875 -4.953125 C 6.953125 -4.671875 6.820312 -4.414062 6.65625 -4.1875 C 6.5 -3.957031 6.300781 -3.765625 6.0625 -3.609375 C 5.832031 -3.453125 5.578125 -3.34375 5.296875 -3.28125 L 7.375 0 L 6.4375 0 L 4.421875 -3.140625 L 1.90625 -3.140625 L 1.90625 0 Z M 1.90625 -3.890625 L 4.6875 -3.890625 C 4.9375 -3.890625 5.160156 -3.941406 5.359375 -4.046875 C 5.566406 -4.160156 5.742188 -4.304688 5.890625 -4.484375 C 6.035156 -4.671875 6.144531 -4.878906 6.21875 -5.109375 C 6.300781 -5.335938 6.34375 -5.582031 6.34375 -5.84375 C 6.34375 -6.101562 6.296875 -6.347656 6.203125 -6.578125 C 6.117188 -6.816406 6 -7.023438 5.84375 -7.203125 C 5.6875 -7.378906 5.5 -7.519531 5.28125 -7.625 C 5.070312 -7.726562 4.851562 -7.78125 4.625 -7.78125 L 1.90625 -7.78125 Z M 1.90625 -3.890625 "/></g></g></g><g fill="#ddc385" fill-opacity="1"><g transform="translate(155.181203, 214.216407)"><g><path d="M 6.046875 -6.921875 C 5.804688 -7.191406 5.484375 -7.410156 5.078125 -7.578125 C 4.679688 -7.753906 4.226562 -7.84375 3.71875 -7.84375 C 2.96875 -7.84375 2.421875 -7.695312 2.078125 -7.40625 C 1.734375 -7.125 1.5625 -6.738281 1.5625 -6.25 C 1.5625 -6 1.609375 -5.789062 1.703125 -5.625 C 1.796875 -5.457031 1.9375 -5.3125 2.125 -5.1875 C 2.3125 -5.070312 2.554688 -4.96875 2.859375 -4.875 C 3.160156 -4.789062 3.515625 -4.707031 3.921875 -4.625 C 4.378906 -4.519531 4.789062 -4.40625 5.15625 -4.28125 C 5.519531 -4.164062 5.828125 -4.019531 6.078125 -3.84375 C 6.335938 -3.664062 6.535156 -3.445312 6.671875 -3.1875 C 6.804688 -2.9375 6.875 -2.617188 6.875 -2.234375 C 6.875 -1.835938 6.796875 -1.492188 6.640625 -1.203125 C 6.492188 -0.921875 6.285156 -0.679688 6.015625 -0.484375 C 5.742188 -0.296875 5.414062 -0.15625 5.03125 -0.0625 C 4.65625 0.03125 4.242188 0.078125 3.796875 0.078125 C 2.484375 0.078125 1.347656 -0.332031 0.390625 -1.15625 L 0.796875 -1.84375 C 0.953125 -1.6875 1.132812 -1.535156 1.34375 -1.390625 C 1.5625 -1.242188 1.800781 -1.117188 2.0625 -1.015625 C 2.320312 -0.910156 2.597656 -0.828125 2.890625 -0.765625 C 3.191406 -0.703125 3.503906 -0.671875 3.828125 -0.671875 C 4.503906 -0.671875 5.03125 -0.789062 5.40625 -1.03125 C 5.789062 -1.28125 5.984375 -1.648438 5.984375 -2.140625 C 5.984375 -2.410156 5.925781 -2.632812 5.8125 -2.8125 C 5.707031 -2.988281 5.546875 -3.144531 5.328125 -3.28125 C 5.117188 -3.414062 4.851562 -3.53125 4.53125 -3.625 C 4.21875 -3.71875 3.847656 -3.8125 3.421875 -3.90625 C 2.972656 -4.007812 2.578125 -4.117188 2.234375 -4.234375 C 1.898438 -4.347656 1.617188 -4.488281 1.390625 -4.65625 C 1.160156 -4.820312 0.988281 -5.019531 0.875 -5.25 C 0.757812 -5.488281 0.703125 -5.78125 0.703125 -6.125 C 0.703125 -6.519531 0.773438 -6.867188 0.921875 -7.171875 C 1.066406 -7.484375 1.273438 -7.738281 1.546875 -7.9375 C 1.816406 -8.144531 2.132812 -8.300781 2.5 -8.40625 C 2.875 -8.519531 3.285156 -8.578125 3.734375 -8.578125 C 4.296875 -8.578125 4.800781 -8.488281 5.25 -8.3125 C 5.695312 -8.144531 6.097656 -7.90625 6.453125 -7.59375 Z M 6.046875 -6.921875 "/></g></g></g><g fill="#ddc385" fill-opacity="1"><g transform="translate(163.665532, 214.216407)"><g><path d="M 4.5 0.0625 C 3.90625 0.0625 3.363281 -0.0546875 2.875 -0.296875 C 2.382812 -0.546875 1.960938 -0.875 1.609375 -1.28125 C 1.253906 -1.6875 0.976562 -2.144531 0.78125 -2.65625 C 0.59375 -3.175781 0.5 -3.710938 0.5 -4.265625 C 0.5 -4.828125 0.597656 -5.367188 0.796875 -5.890625 C 1.003906 -6.410156 1.289062 -6.867188 1.65625 -7.265625 C 2.019531 -7.671875 2.441406 -7.988281 2.921875 -8.21875 C 3.410156 -8.457031 3.941406 -8.578125 4.515625 -8.578125 C 5.109375 -8.578125 5.648438 -8.453125 6.140625 -8.203125 C 6.628906 -7.953125 7.046875 -7.617188 7.390625 -7.203125 C 7.742188 -6.796875 8.015625 -6.332031 8.203125 -5.8125 C 8.398438 -5.300781 8.5 -4.78125 8.5 -4.25 C 8.5 -3.675781 8.394531 -3.128906 8.1875 -2.609375 C 7.988281 -2.097656 7.707031 -1.640625 7.34375 -1.234375 C 6.988281 -0.835938 6.566406 -0.519531 6.078125 -0.28125 C 5.597656 -0.0507812 5.070312 0.0625 4.5 0.0625 Z M 1.34375 -4.265625 C 1.34375 -3.796875 1.414062 -3.347656 1.5625 -2.921875 C 1.71875 -2.492188 1.9375 -2.113281 2.21875 -1.78125 C 2.5 -1.445312 2.832031 -1.179688 3.21875 -0.984375 C 3.601562 -0.796875 4.03125 -0.703125 4.5 -0.703125 C 4.976562 -0.703125 5.410156 -0.800781 5.796875 -1 C 6.191406 -1.207031 6.523438 -1.476562 6.796875 -1.8125 C 7.078125 -2.15625 7.289062 -2.535156 7.4375 -2.953125 C 7.582031 -3.378906 7.65625 -3.816406 7.65625 -4.265625 C 7.65625 -4.722656 7.578125 -5.164062 7.421875 -5.59375 C 7.265625 -6.019531 7.046875 -6.394531 6.765625 -6.71875 C 6.484375 -7.050781 6.148438 -7.316406 5.765625 -7.515625 C 5.390625 -7.710938 4.96875 -7.8125 4.5 -7.8125 C 4.019531 -7.8125 3.582031 -7.707031 3.1875 -7.5 C 2.800781 -7.300781 2.46875 -7.03125 2.1875 -6.6875 C 1.914062 -6.351562 1.707031 -5.972656 1.5625 -5.546875 C 1.414062 -5.128906 1.34375 -4.703125 1.34375 -4.265625 Z M 1.34375 -4.265625 "/></g></g></g><g fill="#ddc385" fill-opacity="1"><g transform="translate(173.877861, 214.216407)"><g><path d="M 1.90625 -6.953125 L 1.90625 0 L 1.0625 0 L 1.0625 -8.515625 L 1.71875 -8.515625 L 7.359375 -1.421875 L 7.359375 -8.515625 L 8.203125 -8.515625 L 8.203125 0 L 7.46875 0 Z M 1.90625 -6.953125 "/></g></g></g><g fill="#ddc385" fill-opacity="1"><g transform="translate(184.342189, 214.216407)"><g><path d="M 3.703125 -8.515625 L 4.421875 -8.515625 L 7.953125 0 L 7.0625 0 L 5.96875 -2.65625 L 2.140625 -2.65625 L 1.046875 0 L 0.140625 0 Z M 5.765625 -3.328125 L 4.0625 -7.53125 L 2.3125 -3.328125 Z M 5.765625 -3.328125 "/></g></g></g><g fill="#ddc385" fill-opacity="1"><g transform="translate(193.654521, 214.216407)"><g><path d="M 1.0625 0 L 1.0625 -8.515625 L 1.90625 -8.515625 L 1.90625 -0.75 L 6.828125 -0.75 L 6.828125 0 Z M 1.0625 0 "/></g></g></g><g fill="#ddc385" fill-opacity="1"><g transform="translate(201.850847, 214.216407)"><g/></g></g><g fill="#ddc385" fill-opacity="1"><g transform="translate(206.111162, 214.216407)"><g><path d="M 1.0625 0 L 1.0625 -8.515625 L 1.90625 -8.515625 L 1.90625 0 Z M 1.0625 0 "/></g></g></g><g fill="#ddc385" fill-opacity="1"><g transform="translate(210.287477, 214.216407)"><g><path d="M 1.90625 -6.953125 L 1.90625 0 L 1.0625 0 L 1.0625 -8.515625 L 1.71875 -8.515625 L 7.359375 -1.421875 L 7.359375 -8.515625 L 8.203125 -8.515625 L 8.203125 0 L 7.46875 0 Z M 1.90625 -6.953125 "/></g></g></g><g fill="#ddc385" fill-opacity="1"><g transform="translate(220.751805, 214.216407)"><g><path d="M 0.40625 -1.0625 C 0.582031 -0.945312 0.804688 -0.84375 1.078125 -0.75 C 1.359375 -0.664062 1.671875 -0.625 2.015625 -0.625 C 2.441406 -0.625 2.785156 -0.703125 3.046875 -0.859375 C 3.304688 -1.015625 3.503906 -1.242188 3.640625 -1.546875 C 3.785156 -1.847656 3.875 -2.222656 3.90625 -2.671875 C 3.945312 -3.117188 3.96875 -3.625 3.96875 -4.1875 L 3.96875 -8.515625 L 4.8125 -8.515625 L 4.8125 -4.1875 C 4.8125 -3.539062 4.78125 -2.953125 4.71875 -2.421875 C 4.65625 -1.890625 4.53125 -1.429688 4.34375 -1.046875 C 4.15625 -0.671875 3.875 -0.378906 3.5 -0.171875 C 3.132812 0.0234375 2.640625 0.125 2.015625 0.125 C 1.296875 0.125 0.679688 -0.046875 0.171875 -0.390625 Z M 0.40625 -1.0625 "/></g></g></g><g fill="#ddc385" fill-opacity="1"><g transform="translate(227.724129, 214.216407)"><g><path d="M 4.53125 -0.703125 C 5.0625 -0.703125 5.503906 -0.800781 5.859375 -1 C 6.210938 -1.207031 6.492188 -1.472656 6.703125 -1.796875 C 6.921875 -2.128906 7.070312 -2.507812 7.15625 -2.9375 C 7.238281 -3.363281 7.28125 -3.789062 7.28125 -4.21875 L 7.28125 -8.515625 L 8.125 -8.515625 L 8.125 -4.21875 C 8.125 -3.644531 8.054688 -3.097656 7.921875 -2.578125 C 7.796875 -2.066406 7.59375 -1.613281 7.3125 -1.21875 C 7.03125 -0.832031 6.660156 -0.519531 6.203125 -0.28125 C 5.742188 -0.0507812 5.1875 0.0625 4.53125 0.0625 C 3.863281 0.0625 3.296875 -0.0546875 2.828125 -0.296875 C 2.367188 -0.546875 2 -0.867188 1.71875 -1.265625 C 1.445312 -1.671875 1.25 -2.128906 1.125 -2.640625 C 1.007812 -3.148438 0.953125 -3.675781 0.953125 -4.21875 L 0.953125 -8.515625 L 1.78125 -8.515625 L 1.78125 -4.21875 C 1.78125 -3.769531 1.820312 -3.332031 1.90625 -2.90625 C 2 -2.488281 2.148438 -2.113281 2.359375 -1.78125 C 2.566406 -1.457031 2.847656 -1.195312 3.203125 -1 C 3.554688 -0.800781 4 -0.703125 4.53125 -0.703125 Z M 4.53125 -0.703125 "/></g></g></g><g fill="#ddc385" fill-opacity="1"><g transform="translate(237.984455, 214.216407)"><g><path d="M 1.0625 0 L 1.0625 -8.515625 L 4.671875 -8.515625 C 5.035156 -8.515625 5.367188 -8.4375 5.671875 -8.28125 C 5.984375 -8.125 6.25 -7.921875 6.46875 -7.671875 C 6.695312 -7.421875 6.875 -7.132812 7 -6.8125 C 7.125 -6.5 7.1875 -6.175781 7.1875 -5.84375 C 7.1875 -5.53125 7.140625 -5.234375 7.046875 -4.953125 C 6.953125 -4.671875 6.820312 -4.414062 6.65625 -4.1875 C 6.5 -3.957031 6.300781 -3.765625 6.0625 -3.609375 C 5.832031 -3.453125 5.578125 -3.34375 5.296875 -3.28125 L 7.375 0 L 6.4375 0 L 4.421875 -3.140625 L 1.90625 -3.140625 L 1.90625 0 Z M 1.90625 -3.890625 L 4.6875 -3.890625 C 4.9375 -3.890625 5.160156 -3.941406 5.359375 -4.046875 C 5.566406 -4.160156 5.742188 -4.304688 5.890625 -4.484375 C 6.035156 -4.671875 6.144531 -4.878906 6.21875 -5.109375 C 6.300781 -5.335938 6.34375 -5.582031 6.34375 -5.84375 C 6.34375 -6.101562 6.296875 -6.347656 6.203125 -6.578125 C 6.117188 -6.816406 6 -7.023438 5.84375 -7.203125 C 5.6875 -7.378906 5.5 -7.519531 5.28125 -7.625 C 5.070312 -7.726562 4.851562 -7.78125 4.625 -7.78125 L 1.90625 -7.78125 Z M 1.90625 -3.890625 "/></g></g></g><g fill="#ddc385" fill-opacity="1"><g transform="translate(247.020789, 214.216407)"><g><path d="M 1.109375 -8.515625 L 3.90625 -3.9375 L 6.703125 -8.515625 L 7.625 -8.515625 L 4.3125 -3.171875 L 4.3125 0 L 3.484375 0 L 3.484375 -3.1875 L 0.1875 -8.515625 Z M 1.109375 -8.515625 "/></g></g></g><g fill="#ddc385" fill-opacity="1"><g transform="translate(256.033114, 214.216407)"><g/></g></g><g fill="#ddc385" fill-opacity="1"><g transform="translate(260.293428, 214.216407)"><g><path d="M 3.703125 -8.515625 L 4.421875 -8.515625 L 7.953125 0 L 7.0625 0 L 5.96875 -2.65625 L 2.140625 -2.65625 L 1.046875 0 L 0.140625 0 Z M 5.765625 -3.328125 L 4.0625 -7.53125 L 2.3125 -3.328125 Z M 5.765625 -3.328125 "/></g></g></g><g fill="#ddc385" fill-opacity="1"><g transform="translate(269.60576, 214.216407)"><g><path d="M 7.109375 -7.78125 L 4.078125 -7.78125 L 4.078125 0 L 3.234375 0 L 3.234375 -7.78125 L 0.203125 -7.78125 L 0.203125 -8.515625 L 7.109375 -8.515625 Z M 7.109375 -7.78125 "/></g></g></g><g fill="#ddc385" fill-opacity="1"><g transform="translate(278.126092, 214.216407)"><g><path d="M 7.109375 -7.78125 L 4.078125 -7.78125 L 4.078125 0 L 3.234375 0 L 3.234375 -7.78125 L 0.203125 -7.78125 L 0.203125 -8.515625 L 7.109375 -8.515625 Z M 7.109375 -7.78125 "/></g></g></g><g fill="#ddc385" fill-opacity="1"><g transform="translate(286.646423, 214.216407)"><g><path d="M 4.5 0.0625 C 3.90625 0.0625 3.363281 -0.0546875 2.875 -0.296875 C 2.382812 -0.546875 1.960938 -0.875 1.609375 -1.28125 C 1.253906 -1.6875 0.976562 -2.144531 0.78125 -2.65625 C 0.59375 -3.175781 0.5 -3.710938 0.5 -4.265625 C 0.5 -4.828125 0.597656 -5.367188 0.796875 -5.890625 C 1.003906 -6.410156 1.289062 -6.867188 1.65625 -7.265625 C 2.019531 -7.671875 2.441406 -7.988281 2.921875 -8.21875 C 3.410156 -8.457031 3.941406 -8.578125 4.515625 -8.578125 C 5.109375 -8.578125 5.648438 -8.453125 6.140625 -8.203125 C 6.628906 -7.953125 7.046875 -7.617188 7.390625 -7.203125 C 7.742188 -6.796875 8.015625 -6.332031 8.203125 -5.8125 C 8.398438 -5.300781 8.5 -4.78125 8.5 -4.25 C 8.5 -3.675781 8.394531 -3.128906 8.1875 -2.609375 C 7.988281 -2.097656 7.707031 -1.640625 7.34375 -1.234375 C 6.988281 -0.835938 6.566406 -0.519531 6.078125 -0.28125 C 5.597656 -0.0507812 5.070312 0.0625 4.5 0.0625 Z M 1.34375 -4.265625 C 1.34375 -3.796875 1.414062 -3.347656 1.5625 -2.921875 C 1.71875 -2.492188 1.9375 -2.113281 2.21875 -1.78125 C 2.5 -1.445312 2.832031 -1.179688 3.21875 -0.984375 C 3.601562 -0.796875 4.03125 -0.703125 4.5 -0.703125 C 4.976562 -0.703125 5.410156 -0.800781 5.796875 -1 C 6.191406 -1.207031 6.523438 -1.476562 6.796875 -1.8125 C 7.078125 -2.15625 7.289062 -2.535156 7.4375 -2.953125 C 7.582031 -3.378906 7.65625 -3.816406 7.65625 -4.265625 C 7.65625 -4.722656 7.578125 -5.164062 7.421875 -5.59375 C 7.265625 -6.019531 7.046875 -6.394531 6.765625 -6.71875 C 6.484375 -7.050781 6.148438 -7.316406 5.765625 -7.515625 C 5.390625 -7.710938 4.96875 -7.8125 4.5 -7.8125 C 4.019531 -7.8125 3.582031 -7.707031 3.1875 -7.5 C 2.800781 -7.300781 2.46875 -7.03125 2.1875 -6.6875 C 1.914062 -6.351562 1.707031 -5.972656 1.5625 -5.546875 C 1.414062 -5.128906 1.34375 -4.703125 1.34375 -4.265625 Z M 1.34375 -4.265625 "/></g></g></g><g fill="#ddc385" fill-opacity="1"><g transform="translate(296.858753, 214.216407)"><g><path d="M 1.0625 0 L 1.0625 -8.515625 L 4.671875 -8.515625 C 5.035156 -8.515625 5.367188 -8.4375 5.671875 -8.28125 C 5.984375 -8.125 6.25 -7.921875 6.46875 -7.671875 C 6.695312 -7.421875 6.875 -7.132812 7 -6.8125 C 7.125 -6.5 7.1875 -6.175781 7.1875 -5.84375 C 7.1875 -5.53125 7.140625 -5.234375 7.046875 -4.953125 C 6.953125 -4.671875 6.820312 -4.414062 6.65625 -4.1875 C 6.5 -3.957031 6.300781 -3.765625 6.0625 -3.609375 C 5.832031 -3.453125 5.578125 -3.34375 5.296875 -3.28125 L 7.375 0 L 6.4375 0 L 4.421875 -3.140625 L 1.90625 -3.140625 L 1.90625 0 Z M 1.90625 -3.890625 L 4.6875 -3.890625 C 4.9375 -3.890625 5.160156 -3.941406 5.359375 -4.046875 C 5.566406 -4.160156 5.742188 -4.304688 5.890625 -4.484375 C 6.035156 -4.671875 6.144531 -4.878906 6.21875 -5.109375 C 6.300781 -5.335938 6.34375 -5.582031 6.34375 -5.84375 C 6.34375 -6.101562 6.296875 -6.347656 6.203125 -6.578125 C 6.117188 -6.816406 6 -7.023438 5.84375 -7.203125 C 5.6875 -7.378906 5.5 -7.519531 5.28125 -7.625 C 5.070312 -7.726562 4.851562 -7.78125 4.625 -7.78125 L 1.90625 -7.78125 Z M 1.90625 -3.890625 "/></g></g></g><g fill="#ddc385" fill-opacity="1"><g transform="translate(305.895087, 214.216407)"><g><path d="M 1.90625 -6.953125 L 1.90625 0 L 1.0625 0 L 1.0625 -8.515625 L 1.71875 -8.515625 L 7.359375 -1.421875 L 7.359375 -8.515625 L 8.203125 -8.515625 L 8.203125 0 L 7.46875 0 Z M 1.90625 -6.953125 "/></g></g></g><g fill="#ddc385" fill-opacity="1"><g transform="translate(316.359415, 214.216407)"><g><path d="M 6.796875 -0.75 L 6.796875 0 L 1.0625 0 L 1.0625 -8.515625 L 6.6875 -8.515625 L 6.6875 -7.78125 L 1.90625 -7.78125 L 1.90625 -4.703125 L 6.078125 -4.703125 L 6.078125 -4 L 1.90625 -4 L 1.90625 -0.75 Z M 6.796875 -0.75 "/></g></g></g><g fill="#ddc385" fill-opacity="1"><g transform="translate(324.867742, 214.216407)"><g><path d="M 1.109375 -8.515625 L 3.90625 -3.9375 L 6.703125 -8.515625 L 7.625 -8.515625 L 4.3125 -3.171875 L 4.3125 0 L 3.484375 0 L 3.484375 -3.1875 L 0.1875 -8.515625 Z M 1.109375 -8.515625 "/></g></g></g><g fill="#ddc385" fill-opacity="1"><g transform="translate(333.880078, 214.216407)"><g><path d="M 6.046875 -6.921875 C 5.804688 -7.191406 5.484375 -7.410156 5.078125 -7.578125 C 4.679688 -7.753906 4.226562 -7.84375 3.71875 -7.84375 C 2.96875 -7.84375 2.421875 -7.695312 2.078125 -7.40625 C 1.734375 -7.125 1.5625 -6.738281 1.5625 -6.25 C 1.5625 -6 1.609375 -5.789062 1.703125 -5.625 C 1.796875 -5.457031 1.9375 -5.3125 2.125 -5.1875 C 2.3125 -5.070312 2.554688 -4.96875 2.859375 -4.875 C 3.160156 -4.789062 3.515625 -4.707031 3.921875 -4.625 C 4.378906 -4.519531 4.789062 -4.40625 5.15625 -4.28125 C 5.519531 -4.164062 5.828125 -4.019531 6.078125 -3.84375 C 6.335938 -3.664062 6.535156 -3.445312 6.671875 -3.1875 C 6.804688 -2.9375 6.875 -2.617188 6.875 -2.234375 C 6.875 -1.835938 6.796875 -1.492188 6.640625 -1.203125 C 6.492188 -0.921875 6.285156 -0.679688 6.015625 -0.484375 C 5.742188 -0.296875 5.414062 -0.15625 5.03125 -0.0625 C 4.65625 0.03125 4.242188 0.078125 3.796875 0.078125 C 2.484375 0.078125 1.347656 -0.332031 0.390625 -1.15625 L 0.796875 -1.84375 C 0.953125 -1.6875 1.132812 -1.535156 1.34375 -1.390625 C 1.5625 -1.242188 1.800781 -1.117188 2.0625 -1.015625 C 2.320312 -0.910156 2.597656 -0.828125 2.890625 -0.765625 C 3.191406 -0.703125 3.503906 -0.671875 3.828125 -0.671875 C 4.503906 -0.671875 5.03125 -0.789062 5.40625 -1.03125 C 5.789062 -1.28125 5.984375 -1.648438 5.984375 -2.140625 C 5.984375 -2.410156 5.925781 -2.632812 5.8125 -2.8125 C 5.707031 -2.988281 5.546875 -3.144531 5.328125 -3.28125 C 5.117188 -3.414062 4.851562 -3.53125 4.53125 -3.625 C 4.21875 -3.71875 3.847656 -3.8125 3.421875 -3.90625 C 2.972656 -4.007812 2.578125 -4.117188 2.234375 -4.234375 C 1.898438 -4.347656 1.617188 -4.488281 1.390625 -4.65625 C 1.160156 -4.820312 0.988281 -5.019531 0.875 -5.25 C 0.757812 -5.488281 0.703125 -5.78125 0.703125 -6.125 C 0.703125 -6.519531 0.773438 -6.867188 0.921875 -7.171875 C 1.066406 -7.484375 1.273438 -7.738281 1.546875 -7.9375 C 1.816406 -8.144531 2.132812 -8.300781 2.5 -8.40625 C 2.875 -8.519531 3.285156 -8.578125 3.734375 -8.578125 C 4.296875 -8.578125 4.800781 -8.488281 5.25 -8.3125 C 5.695312 -8.144531 6.097656 -7.90625 6.453125 -7.59375 Z M 6.046875 -6.921875 "/></g></g></g><g clip-path="url(#9cc1a1aef2)"><g clip-path="url(#3f7deb80f4)"><g clip-path="url(#80c428a4ac)"><path fill="#ddc385" d="M 118.445312 186.386719 L 71.511719 139.453125 C 70.871094 138.808594 69.828125 138.808594 69.183594 139.449219 L 22.1875 186.449219 C 21.546875 187.089844 21.546875 188.132812 22.1875 188.773438 L 69.121094 235.707031 C 69.761719 236.351562 70.808594 236.351562 71.449219 235.707031 L 118.445312 188.710938 C 119.085938 188.070312 119.085938 187.027344 118.445312 186.386719 Z M 37.453125 188.773438 L 60.324219 211.644531 L 55.019531 216.953125 L 25.675781 187.613281 L 70.347656 142.941406 L 75.65625 148.246094 L 37.453125 186.449219 C 36.8125 187.089844 36.8125 188.132812 37.453125 188.773438 Z M 52.71875 188.773438 L 67.960938 204.011719 L 62.652344 209.320312 L 40.945312 187.613281 L 77.980469 150.574219 L 83.289062 155.878906 L 52.71875 186.449219 C 52.078125 187.089844 52.078125 188.132812 52.71875 188.773438 Z M 56.210938 187.613281 L 70.347656 173.472656 L 84.421875 187.546875 L 70.285156 201.6875 Z M 87.914062 186.386719 L 72.675781 171.148438 L 77.980469 165.839844 L 99.691406 187.546875 L 62.652344 224.585938 L 57.34375 219.28125 L 87.914062 188.710938 C 88.554688 188.070312 88.554688 187.027344 87.914062 186.386719 Z M 103.179688 186.386719 L 80.308594 163.515625 L 85.613281 158.207031 L 114.957031 187.546875 L 70.285156 232.21875 L 64.976562 226.914062 L 103.179688 188.710938 C 103.820312 188.070312 103.820312 187.027344 103.179688 186.386719 Z M 103.179688 186.386719 " fill-opacity="1" fill-rule="nonzero"/></g></g></g></svg>